<?xml version="1.0" encoding="UTF-8" standalone="no"?>
<!-- Created with Inkscape (http://www.inkscape.org/) -->

<svg
   xmlns:dc="http://purl.org/dc/elements/1.1/"
   xmlns:cc="http://creativecommons.org/ns#"
   xmlns:rdf="http://www.w3.org/1999/02/22-rdf-syntax-ns#"
   xmlns:svg="http://www.w3.org/2000/svg"
   xmlns="http://www.w3.org/2000/svg"
   xmlns:sodipodi="http://sodipodi.sourceforge.net/DTD/sodipodi-0.dtd"
   xmlns:inkscape="http://www.inkscape.org/namespaces/inkscape"
   width="86.123642mm"
   height="19.663736mm"
   viewBox="0 0 86.123642 19.663736"
   version="1.1"
   id="svg1730"
   sodipodi:docname="aboutbutton0200215a.svg"
   inkscape:version="0.92.3 (2405546, 2018-03-11)">
  <defs
     id="defs1724" />
  <sodipodi:namedview
     id="base"
     pagecolor="#ffffff"
     bordercolor="#666666"
     borderopacity="1.0"
     inkscape:pageopacity="0.0"
     inkscape:pageshadow="2"
     inkscape:zoom="2.8"
     inkscape:cx="209.2194"
     inkscape:cy="60.367881"
     inkscape:document-units="mm"
     inkscape:current-layer="layer1"
     showgrid="false"
     inkscape:window-width="1920"
     inkscape:window-height="1012"
     inkscape:window-x="0"
     inkscape:window-y="32"
     inkscape:window-maximized="1" />
  <metadata
     id="metadata1727">
    <rdf:RDF>
      <cc:Work
         rdf:about="">
        <dc:format>image/svg+xml</dc:format>
        <dc:type
           rdf:resource="http://purl.org/dc/dcmitype/StillImage" />
        <dc:title></dc:title>
      </cc:Work>
    </rdf:RDF>
  </metadata>
  <g
     inkscape:label="Layer 1"
     inkscape:groupmode="layer"
     id="layer1"
     transform="translate(-45.238008,-105.16232)">
    <rect
       style="opacity:1;fill:none;fill-opacity:0.86516849;stroke:#000000;stroke-width:1.914814;stroke-linecap:round;stroke-linejoin:miter;stroke-miterlimit:4;stroke-dasharray:none;stroke-opacity:1"
       id="rect8970"
       width="84.208824"
       height="17.748922"
       x="46.195415"
       y="106.11973" />
    <g
       aria-label="ABOUT PAGE"
       style="font-style:normal;font-weight:normal;font-size:10.58333302px;line-height:1.25;font-family:sans-serif;letter-spacing:0px;word-spacing:0px;fill:#c8ab37;fill-opacity:1;stroke:none;stroke-width:0.07000434"
       id="text2333">
      <path
         d="m 56.511068,117.44106 h -3.110922 l -0.490926,1.4056 h -1.999878 l 2.857707,-7.71529 h 2.371948 l 2.857707,7.71529 h -1.999878 z m -2.614828,-1.43144 h 2.113566 l -1.054199,-3.06958 z"
         style="font-weight:bold;fill:#c8ab37;fill-opacity:1;stroke-width:0.07000434"
         id="path2374"
         inkscape:connector-curvature="0" />
      <path
         d="m 63.10498,114.11826 q 0.470256,0 0.713135,-0.2067 0.242879,-0.20671 0.242879,-0.60978 0,-0.39791 -0.242879,-0.60462 -0.242879,-0.21187 -0.713135,-0.21187 h -1.100708 v 1.63297 z m 0.06718,3.37447 q 0.599446,0 0.89917,-0.25321 0.304891,-0.25321 0.304891,-0.76481 0,-0.50126 -0.299724,-0.74931 -0.299723,-0.25321 -0.904337,-0.25321 h -1.167888 v 2.02054 z m 1.850016,-2.77502 q 0.640788,0.18604 0.992187,0.6873 0.3514,0.50126 0.3514,1.2299 0,1.11621 -0.754476,1.66398 -0.754476,0.54777 -2.294433,0.54777 H 60.01473 v -7.71529 h 2.986897 q 1.607137,0 2.32544,0.48575 0.72347,0.48576 0.72347,1.55546 0,0.56328 -0.26355,0.96119 -0.26355,0.39274 -0.764811,0.58394 z"
         style="font-weight:bold;fill:#c8ab37;fill-opacity:1;stroke-width:0.07000434"
         id="path2376"
         inkscape:connector-curvature="0" />
      <path
         d="m 71.600586,112.43361 q -0.909505,0 -1.410767,0.6718 -0.501261,0.67179 -0.501261,1.89135 0,1.2144 0.501261,1.88619 0.501262,0.6718 1.410767,0.6718 0.914673,0 1.415934,-0.6718 0.501261,-0.67179 0.501261,-1.88619 0,-1.21956 -0.501261,-1.89135 -0.501261,-0.6718 -1.415934,-0.6718 z m 0,-1.44177 q 1.860351,0 2.91455,1.06453 1.0542,1.06454 1.0542,2.94039 0,1.87069 -1.0542,2.93522 -1.054199,1.06454 -2.91455,1.06454 -1.855184,0 -2.914551,-1.06454 -1.054199,-1.06453 -1.054199,-2.93522 0,-1.87585 1.054199,-2.94039 1.059367,-1.06453 2.914551,-1.06453 z"
         style="font-weight:bold;fill:#c8ab37;fill-opacity:1;stroke-width:0.07000434"
         id="path2378"
         inkscape:connector-curvature="0" />
      <path
         d="m 77.067952,111.13137 h 1.989543 v 4.62504 q 0,0.95601 0.310059,1.36942 0.315226,0.40825 1.023193,0.40825 0.713135,0 1.023193,-0.40825 0.315226,-0.41341 0.315226,-1.36942 v -4.62504 h 1.989543 v 4.62504 q 0,1.63814 -0.821655,2.43912 -0.821655,0.80099 -2.506307,0.80099 -1.679484,0 -2.501139,-0.80099 -0.821656,-0.80098 -0.821656,-2.43912 z"
         style="font-weight:bold;fill:#c8ab37;fill-opacity:1;stroke-width:0.07000434"
         id="path2380"
         inkscape:connector-curvature="0" />
      <path
         d="m 84.747069,111.13137 h 7.110677 v 1.50378 h -2.557983 v 6.21151 H 87.31022 v -6.21151 h -2.563151 z"
         style="font-weight:bold;fill:#c8ab37;fill-opacity:1;stroke-width:0.07000434"
         id="path2382"
         inkscape:connector-curvature="0" />
      <path
         d="m 96.5603,111.13137 h 3.302124 q 1.472776,0 2.258256,0.65629 0.79065,0.65112 0.79065,1.86035 0,1.21439 -0.79065,1.87068 -0.78548,0.65113 -2.258256,0.65113 h -1.312581 v 2.67684 H 96.5603 Z m 1.989543,1.44177 v 2.15491 h 1.100708 q 0.578779,0 0.893999,-0.27906 0.31523,-0.28422 0.31523,-0.80098 0,-0.51677 -0.31523,-0.79582 -0.31522,-0.27905 -0.893999,-0.27905 z"
         style="font-weight:bold;fill:#c8ab37;fill-opacity:1;stroke-width:0.07000434"
         id="path2384"
         inkscape:connector-curvature="0" />
      <path
         d="m 108.02213,117.44106 h -3.11092 l -0.49092,1.4056 h -1.99988 l 2.85771,-7.71529 h 2.37194 l 2.85771,7.71529 h -1.99988 z m -2.61482,-1.43144 h 2.11356 l -1.0542,-3.06958 z"
         style="font-weight:bold;fill:#c8ab37;fill-opacity:1;stroke-width:0.07000434"
         id="path2386"
         inkscape:connector-curvature="0" />
      <path
         d="m 118.46077,118.27305 q -0.74414,0.36173 -1.54512,0.5426 -0.80099,0.18087 -1.65365,0.18087 -1.92753,0 -3.05407,-1.07487 -1.12655,-1.08004 -1.12655,-2.92489 0,-1.86552 1.14722,-2.93522 1.14721,-1.0697 3.14192,-1.0697 0.76998,0 1.47278,0.14469 0.70797,0.1447 1.33325,0.42892 v 1.5968 q -0.64595,-0.3669 -1.28674,-0.54777 -0.63562,-0.18087 -1.27641,-0.18087 -1.18856,0 -1.83451,0.66663 -0.64079,0.66146 -0.64079,1.89652 0,1.22473 0.62012,1.89136 0.62012,0.66663 1.76216,0.66663 0.31006,0 0.57361,-0.0362 0.26872,-0.0413 0.48059,-0.12402 v -1.49862 h -1.21439 v -1.33325 h 3.10058 z"
         style="font-weight:bold;fill:#c8ab37;fill-opacity:1;stroke-width:0.07000434"
         id="path2388"
         inkscape:connector-curvature="0" />
      <path
         d="m 120.20744,111.13137 h 5.36918 v 1.50378 h -3.37964 v 1.4366 h 3.1781 v 1.50379 h -3.1781 v 1.76733 h 3.49333 v 1.50379 h -5.48287 z"
         style="font-weight:bold;fill:#c8ab37;fill-opacity:1;stroke-width:0.07000434"
         id="path2390"
         inkscape:connector-curvature="0" />
    </g>
    <path
       style="opacity:1;fill:#000000;fill-opacity:0.86516849;stroke:none;stroke-width:1.45051956;stroke-linecap:round;stroke-linejoin:miter;stroke-miterlimit:4;stroke-dasharray:none;stroke-opacity:1"
       d="m 48.729074,108.31534 v 5.26325 h 1.604042 v -3.70417 h 2.645836 v -1.55908 z"
       id="path9068"
       inkscape:connector-curvature="0" />
    <path
       style="opacity:0.7;fill:#000000;fill-opacity:0.86516849;stroke:none;stroke-width:1.9148227;stroke-linecap:round;stroke-linejoin:miter;stroke-miterlimit:4;stroke-dasharray:none;stroke-opacity:1"
       d="m 46.195414,106.11972 v 17.74892 h 84.208826 v -17.74892 z m 3.283318,3.41214 h 44.555554 l 0.12995,10.7059 -44.598867,0.125 z"
       id="rect8970-7"
       inkscape:connector-curvature="0"
       sodipodi:nodetypes="cccccccccc" />
    <path
       style="opacity:1;fill:#000000;fill-opacity:0.86516849;stroke:none;stroke-width:1.45051956;stroke-linecap:round;stroke-linejoin:miter;stroke-miterlimit:4;stroke-dasharray:none;stroke-opacity:1"
       d="m 48.729074,121.4877 v -5.26325 h 1.604042 v 3.70416 h 2.645836 v 1.55909 z"
       id="path9068-0"
       inkscape:connector-curvature="0" />
    <path
       style="opacity:1;fill:#000000;fill-opacity:0.86516849;stroke:none;stroke-width:1.45051956;stroke-linecap:round;stroke-linejoin:miter;stroke-miterlimit:4;stroke-dasharray:none;stroke-opacity:1"
       d="m 94.894104,108.31535 v 5.26324 h -1.604021 v -3.70417 h -2.645815 v -1.55907 z"
       id="path9068-9"
       inkscape:connector-curvature="0" />
    <path
       style="opacity:1;fill:#000000;fill-opacity:0.86516849;stroke:none;stroke-width:1.45051956;stroke-linecap:round;stroke-linejoin:miter;stroke-miterlimit:4;stroke-dasharray:none;stroke-opacity:1"
       d="m 94.894104,121.4877 v -5.26324 h -1.604031 v 3.70415 h -2.645805 v 1.55909 z"
       id="path9068-0-5"
       inkscape:connector-curvature="0" />
  </g>
</svg>
