<?xml version="1.0" encoding="UTF-8" standalone="no"?>
<!-- Created with Inkscape (http://www.inkscape.org/) -->

<svg
   xmlns:dc="http://purl.org/dc/elements/1.1/"
   xmlns:cc="http://creativecommons.org/ns#"
   xmlns:rdf="http://www.w3.org/1999/02/22-rdf-syntax-ns#"
   xmlns:svg="http://www.w3.org/2000/svg"
   xmlns="http://www.w3.org/2000/svg"
   xmlns:sodipodi="http://sodipodi.sourceforge.net/DTD/sodipodi-0.dtd"
   xmlns:inkscape="http://www.inkscape.org/namespaces/inkscape"
   width="210mm"
   height="297mm"
   viewBox="0 0 210 297"
   version="1.1"
   id="svg2596"
   inkscape:version="0.92.3 (2405546, 2018-03-11)"
   sodipodi:docname="allflowers.svg">
  <defs
     id="defs2590" />
  <sodipodi:namedview
     id="base"
     pagecolor="#ffffff"
     bordercolor="#666666"
     borderopacity="1.0"
     inkscape:pageopacity="0.0"
     inkscape:pageshadow="2"
     inkscape:zoom="0.35"
     inkscape:cx="-217.14286"
     inkscape:cy="560"
     inkscape:document-units="mm"
     inkscape:current-layer="layer1"
     showgrid="false"
     inkscape:window-width="1920"
     inkscape:window-height="1012"
     inkscape:window-x="0"
     inkscape:window-y="32"
     inkscape:window-maximized="1" />
  <metadata
     id="metadata2593">
    <rdf:RDF>
      <cc:Work
         rdf:about="">
        <dc:format>image/svg+xml</dc:format>
        <dc:type
           rdf:resource="http://purl.org/dc/dcmitype/StillImage" />
        <dc:title></dc:title>
      </cc:Work>
    </rdf:RDF>
  </metadata>
  <g
     inkscape:label="Layer 1"
     inkscape:groupmode="layer"
     id="layer1">
    <g
       transform="matrix(0.53973892,0,0,0.52636968,101.35824,178.5603)"
       id="g2571">
      <ellipse
         ry="33.639881"
         rx="68.602676"
         cy="186.63094"
         cx="104.51041"
         id="path4580"
         style="fill:#aa4400;fill-opacity:1;stroke:none;stroke-width:4.50899982;stroke-miterlimit:4;stroke-dasharray:none;stroke-opacity:1" />
      <path
         transform="matrix(-2.5266065,2.6363571,-2.9981726,-3.3030293,977.56405,513.82759)"
         d="m 107.35105,215.91481 c -6.1973,3.11965 -11.254467,-4.71286 -11.31461,-9.96641 -0.114115,-9.96804 9.6686,-16.67333 18.90425,-16.6122"
         sodipodi:t0="0.22862494"
         sodipodi:argument="-17.801481"
         sodipodi:radius="22.52096"
         sodipodi:revolution="0.62399346"
         sodipodi:expansion="1"
         sodipodi:cy="211.1212"
         sodipodi:cx="109.23042"
         id="path67"
         style="fill:none;fill-rule:evenodd;stroke:#00f400;stroke-width:1.07623458;stroke-linecap:round;stroke-linejoin:miter;stroke-miterlimit:4;stroke-dasharray:none;stroke-opacity:1"
         sodipodi:type="spiral" />
      <path
         sodipodi:nodetypes="ccccc"
         inkscape:connector-curvature="0"
         id="rect4641"
         d="M 45.759782,71.85712 85.825257,60.89581 60.122876,94.53569 24.215139,106.63093 Z"
         style="fill:#ff00ff;fill-opacity:1;stroke:none;stroke-width:14.14339352;stroke-linecap:round;stroke-linejoin:miter;stroke-miterlimit:4;stroke-dasharray:none;stroke-opacity:1" />
      <path
         sodipodi:nodetypes="ccccc"
         inkscape:connector-curvature="0"
         id="rect4641-6"
         d="M 105.8014,83.369351 66.373335,70.29956 106.40713,56.531894 l 36.59481,9.822463 z"
         style="fill:#ff00ff;fill-opacity:1;stroke:none;stroke-width:14.14339352;stroke-linecap:round;stroke-linejoin:miter;stroke-miterlimit:4;stroke-dasharray:none;stroke-opacity:1" />
      <path
         sodipodi:nodetypes="ccccc"
         inkscape:connector-curvature="0"
         id="rect4641-2"
         d="M 59.973823,36.874276 88.621751,71.729901 46.431291,63.57295 18.723482,33.546892 Z"
         style="fill:#ff00ff;fill-opacity:1;stroke:none;stroke-width:15.2344923;stroke-linecap:round;stroke-linejoin:miter;stroke-miterlimit:4;stroke-dasharray:none;stroke-opacity:1" />
      <path
         sodipodi:nodetypes="ccccc"
         inkscape:connector-curvature="0"
         id="rect4641-1"
         d="M 98.112784,96.025403 89.850222,137.11717 68.060376,99.260273 73.152902,61.451378 Z"
         style="fill:#ff00ff;fill-opacity:1;stroke:none;stroke-width:15.05660439;stroke-linecap:round;stroke-linejoin:miter;stroke-miterlimit:4;stroke-dasharray:none;stroke-opacity:1" />
      <path
         sodipodi:nodetypes="ccccc"
         inkscape:connector-curvature="0"
         id="rect4641-27"
         d="M 101.42402,48.85079 74.650298,80.60863 76.729538,38.3247 99.436148,7.992035 Z"
         style="fill:#ff00ff;fill-opacity:1;stroke:none;stroke-width:14.14339352;stroke-linecap:round;stroke-linejoin:miter;stroke-miterlimit:4;stroke-dasharray:none;stroke-opacity:1" />
      <ellipse
         ry="6.0823469"
         rx="4.9484186"
         cy="68.667656"
         cx="76.64193"
         id="path4692"
         style="fill:#000000;fill-opacity:1;stroke:none;stroke-width:9.91913128;stroke-linecap:round;stroke-linejoin:miter;stroke-miterlimit:4;stroke-dasharray:none;stroke-opacity:1" />
    </g>
    <g
       transform="matrix(0.61609363,0,0,0.52809806,-13.104759,180.13589)"
       id="g3172">
      <ellipse
         ry="33.639881"
         rx="68.602676"
         cy="186.63094"
         cx="104.51041"
         id="path4580-3"
         style="fill:#aa4400;fill-opacity:1;stroke:none;stroke-width:4.50899982;stroke-miterlimit:4;stroke-dasharray:none;stroke-opacity:1" />
      <path
         transform="matrix(-2.5266065,2.8477719,-2.9981726,-3.567906,987.39143,534.38649)"
         d="m 109.23042,211.1212 c 2.71025,4.7038 -5.00349,5.97404 -7.81802,4.5046 -7.627221,-3.98209 -6.137485,-14.72252 -1.19118,-20.14065 3.72954,-4.08531 9.23801,-6.18523 14.71947,-6.14895"
         sodipodi:t0="0"
         sodipodi:argument="-17.801481"
         sodipodi:radius="22.52096"
         sodipodi:revolution="0.62399346"
         sodipodi:expansion="1"
         sodipodi:cy="211.1212"
         sodipodi:cx="109.23042"
         id="path67-6"
         style="fill:none;fill-rule:evenodd;stroke:#00f400;stroke-width:1.07623458;stroke-linecap:round;stroke-linejoin:miter;stroke-miterlimit:4;stroke-dasharray:none;stroke-opacity:1"
         sodipodi:type="spiral" />
      <path
         inkscape:connector-curvature="0"
         id="path10"
         d="M 104.32142,51.315476 A 29.860117,14.741072 0 0 1 74.461305,66.056546 29.860117,14.741072 0 0 1 44.601188,51.315476 29.860117,14.741072 0 0 1 74.461305,36.574404 29.860117,14.741072 0 0 1 104.32142,51.315476 Z"
         style="fill:#ff2a2a;stroke-width:0.26458332" />
      <path
         id="path10-3"
         d="M 104.32142,51.315476 A 29.860118,14.741072 41.714505 0 1 72.222748,42.449736 29.860118,14.741072 41.714505 0 1 59.742068,11.576474 29.860118,14.741072 41.714505 0 1 91.840742,20.44221 29.860118,14.741072 41.714505 0 1 104.32142,51.315476 Z"
         style="fill:#ff2a2a;stroke-width:0.26458332"
         inkscape:connector-curvature="0" />
      <path
         id="path10-3-6"
         d="M 97.513159,58.796806 A 14.741072,29.860118 27.937727 0 1 98.479865,25.510305 14.741072,29.860118 27.937727 0 1 125.49278,6.0365212 14.741072,29.860118 27.937727 0 1 124.52608,39.323026 14.741072,29.860118 27.937727 0 1 97.513159,58.796806 Z"
         style="fill:#ff2a2a;stroke-width:0.26458332"
         inkscape:connector-curvature="0" />
      <path
         id="path10-3-7"
         d="M 100.74226,103.53439 A 29.860118,14.741072 81.607218 0 1 81.800721,76.145616 29.860118,14.741072 81.607218 0 1 92.025588,44.453696 29.860118,14.741072 81.607218 0 1 110.96714,71.842456 29.860118,14.741072 81.607218 0 1 100.74226,103.53439 Z"
         style="fill:#ff2a2a;stroke-width:0.26458332"
         inkscape:connector-curvature="0" />
      <path
         id="path10-3-5"
         d="m 131.19443,92.851606 a 29.860118,14.741072 51.575577 0 1 -30.1061,-14.23196 29.860118,14.741072 51.575577 0 1 -7.008941,-32.55459 29.860118,14.741072 51.575577 0 1 30.106101,14.23197 29.860118,14.741072 51.575577 0 1 7.00894,32.55458 z"
         style="fill:#ff2a2a;stroke-width:0.26458332"
         inkscape:connector-curvature="0" />
      <path
         id="path10-3-3"
         d="m 97.513159,58.796806 a 14.741072,29.860118 46.830262 0 1 -11.692605,31.18027 14.741072,29.860118 46.830262 0 1 -31.863166,9.67805 14.741072,29.860118 46.830262 0 1 11.692606,-31.18027 14.741072,29.860118 46.830262 0 1 31.863165,-9.67805 z"
         style="fill:#ff2a2a;stroke-width:0.26458332"
         inkscape:connector-curvature="0" />
      <ellipse
         ry="13.985119"
         rx="11.339286"
         cy="58.119049"
         cx="94.116066"
         id="path63"
         style="fill:#f9f9f9;stroke-width:0.26458332" />
    </g>
    <g
       transform="matrix(0.51951034,0,0,0.60541937,-4.4237586,27.953987)"
       id="g3224">
      <ellipse
         ry="33.639881"
         rx="68.602676"
         cy="186.63094"
         cx="104.51041"
         id="path4580-7"
         style="fill:#aa4400;fill-opacity:1;stroke:none;stroke-width:4.50899982;stroke-miterlimit:4;stroke-dasharray:none;stroke-opacity:1" />
      <path
         transform="matrix(-2.5266065,2.6363571,-2.9981726,-3.3030293,977.56405,513.82759)"
         d="m 107.35105,215.91481 c -6.1973,3.11965 -11.254467,-4.71286 -11.31461,-9.96641 -0.114115,-9.96804 9.6686,-16.67333 18.90425,-16.6122"
         sodipodi:t0="0.22862494"
         sodipodi:argument="-17.801481"
         sodipodi:radius="22.52096"
         sodipodi:revolution="0.62399346"
         sodipodi:expansion="1"
         sodipodi:cy="211.1212"
         sodipodi:cx="109.23042"
         id="path67-5"
         style="fill:none;fill-rule:evenodd;stroke:#00f400;stroke-width:1.07623458;stroke-linecap:round;stroke-linejoin:miter;stroke-miterlimit:4;stroke-dasharray:none;stroke-opacity:1"
         sodipodi:type="spiral" />
      <path
         sodipodi:nodetypes="ccccc"
         inkscape:connector-curvature="0"
         id="rect4641-3"
         d="M 45.759782,71.85712 85.825257,60.89581 60.122876,94.53569 24.215139,106.63093 Z"
         style="fill:#ffdd55;fill-opacity:1;stroke:none;stroke-width:14.14339352;stroke-linecap:round;stroke-linejoin:miter;stroke-miterlimit:4;stroke-dasharray:none;stroke-opacity:1" />
      <path
         sodipodi:nodetypes="ccccc"
         inkscape:connector-curvature="0"
         id="rect4641-6-5"
         d="M 105.8014,83.369351 66.373335,70.29956 106.40713,56.531894 l 36.59481,9.822463 z"
         style="fill:#ffdd55;fill-opacity:1;stroke:none;stroke-width:14.14339352;stroke-linecap:round;stroke-linejoin:miter;stroke-miterlimit:4;stroke-dasharray:none;stroke-opacity:1" />
      <path
         sodipodi:nodetypes="ccccc"
         inkscape:connector-curvature="0"
         id="rect4641-2-6"
         d="M 59.973823,36.874276 88.621751,71.729901 46.431291,63.57295 18.723482,33.546892 Z"
         style="fill:#ffdd55;fill-opacity:1;stroke:none;stroke-width:15.2344923;stroke-linecap:round;stroke-linejoin:miter;stroke-miterlimit:4;stroke-dasharray:none;stroke-opacity:1" />
      <path
         sodipodi:nodetypes="ccccc"
         inkscape:connector-curvature="0"
         id="rect4641-1-2"
         d="M 98.112784,96.025403 89.850222,137.11717 68.060376,99.260273 73.152902,61.451378 Z"
         style="fill:#ffdd55;fill-opacity:1;stroke:none;stroke-width:15.05660439;stroke-linecap:round;stroke-linejoin:miter;stroke-miterlimit:4;stroke-dasharray:none;stroke-opacity:1" />
      <path
         sodipodi:nodetypes="ccccc"
         inkscape:connector-curvature="0"
         id="rect4641-27-9"
         d="M 101.42402,48.85079 74.650298,80.60863 76.729538,38.3247 99.436148,7.992035 Z"
         style="fill:#ffdd55;fill-opacity:1;stroke:none;stroke-width:14.14339352;stroke-linecap:round;stroke-linejoin:miter;stroke-miterlimit:4;stroke-dasharray:none;stroke-opacity:1" />
      <ellipse
         ry="6.0823469"
         rx="4.9484186"
         cy="68.667656"
         cx="76.64193"
         id="path4692-1"
         style="fill:#000000;fill-opacity:1;stroke:none;stroke-width:9.91913128;stroke-linecap:round;stroke-linejoin:miter;stroke-miterlimit:4;stroke-dasharray:none;stroke-opacity:1" />
    </g>
    <g
       transform="matrix(0.63085398,0,0,0.56425887,83.369788,36.930833)"
       id="g3291">
      <ellipse
         ry="33.639881"
         rx="68.602676"
         cy="186.63094"
         cx="104.51041"
         id="path4580-2"
         style="fill:#aa4400;fill-opacity:1;stroke:none;stroke-width:4.50899982;stroke-miterlimit:4;stroke-dasharray:none;stroke-opacity:1" />
      <path
         transform="matrix(-2.5266065,2.8477719,-2.9981726,-3.567906,987.39143,534.38649)"
         d="m 109.23042,211.1212 c 2.71025,4.7038 -5.00349,5.97404 -7.81802,4.5046 -7.627221,-3.98209 -6.137485,-14.72252 -1.19118,-20.14065 3.72954,-4.08531 9.23801,-6.18523 14.71947,-6.14895"
         sodipodi:t0="0"
         sodipodi:argument="-17.801481"
         sodipodi:radius="22.52096"
         sodipodi:revolution="0.62399346"
         sodipodi:expansion="1"
         sodipodi:cy="211.1212"
         sodipodi:cx="109.23042"
         id="path67-7"
         style="fill:none;fill-rule:evenodd;stroke:#00f400;stroke-width:1.07623458;stroke-linecap:round;stroke-linejoin:miter;stroke-miterlimit:4;stroke-dasharray:none;stroke-opacity:1"
         sodipodi:type="spiral" />
      <path
         inkscape:connector-curvature="0"
         id="path10-0"
         d="M 104.32142,51.315476 A 29.860117,14.741072 0 0 1 74.461305,66.056546 29.860117,14.741072 0 0 1 44.601188,51.315476 29.860117,14.741072 0 0 1 74.461305,36.574404 29.860117,14.741072 0 0 1 104.32142,51.315476 Z"
         style="fill:#0000ff;stroke-width:0.26458332" />
      <path
         id="path10-3-9"
         d="M 104.32142,51.315476 A 29.860118,14.741072 41.714505 0 1 72.222748,42.449736 29.860118,14.741072 41.714505 0 1 59.742068,11.576474 29.860118,14.741072 41.714505 0 1 91.840742,20.44221 29.860118,14.741072 41.714505 0 1 104.32142,51.315476 Z"
         style="fill:#0000ff;stroke-width:0.26458332"
         inkscape:connector-curvature="0" />
      <path
         id="path10-3-6-3"
         d="M 97.513159,58.796806 A 14.741072,29.860118 27.937727 0 1 98.479865,25.510305 14.741072,29.860118 27.937727 0 1 125.49278,6.0365212 14.741072,29.860118 27.937727 0 1 124.52608,39.323026 14.741072,29.860118 27.937727 0 1 97.513159,58.796806 Z"
         style="fill:#0000ff;stroke-width:0.26458332"
         inkscape:connector-curvature="0" />
      <path
         id="path10-3-7-6"
         d="M 100.74226,103.53439 A 29.860118,14.741072 81.607218 0 1 81.800721,76.145616 29.860118,14.741072 81.607218 0 1 92.025588,44.453696 29.860118,14.741072 81.607218 0 1 110.96714,71.842456 29.860118,14.741072 81.607218 0 1 100.74226,103.53439 Z"
         style="fill:#0000ff;stroke-width:0.26458332"
         inkscape:connector-curvature="0" />
      <path
         id="path10-3-5-0"
         d="m 131.19443,92.851606 a 29.860118,14.741072 51.575577 0 1 -30.1061,-14.23196 29.860118,14.741072 51.575577 0 1 -7.008941,-32.55459 29.860118,14.741072 51.575577 0 1 30.106101,14.23197 29.860118,14.741072 51.575577 0 1 7.00894,32.55458 z"
         style="fill:#0000ff;stroke-width:0.26458332"
         inkscape:connector-curvature="0" />
      <path
         id="path10-3-3-6"
         d="m 97.513159,58.796806 a 14.741072,29.860118 46.830262 0 1 -11.692605,31.18027 14.741072,29.860118 46.830262 0 1 -31.863166,9.67805 14.741072,29.860118 46.830262 0 1 11.692606,-31.18027 14.741072,29.860118 46.830262 0 1 31.863165,-9.67805 z"
         style="fill:#0000ff;stroke-width:0.26458332"
         inkscape:connector-curvature="0" />
      <ellipse
         ry="13.985119"
         rx="11.339286"
         cy="58.119049"
         cx="94.116066"
         id="path63-2"
         style="fill:#f9f9f9;stroke-width:0.26458332" />
    </g>
  </g>
</svg>
