<?xml version="1.0" encoding="UTF-8" standalone="no"?>
<!-- Created with Inkscape (http://www.inkscape.org/) -->

<svg
   xmlns:dc="http://purl.org/dc/elements/1.1/"
   xmlns:cc="http://creativecommons.org/ns#"
   xmlns:rdf="http://www.w3.org/1999/02/22-rdf-syntax-ns#"
   xmlns:svg="http://www.w3.org/2000/svg"
   xmlns="http://www.w3.org/2000/svg"
   xmlns:sodipodi="http://sodipodi.sourceforge.net/DTD/sodipodi-0.dtd"
   xmlns:inkscape="http://www.inkscape.org/namespaces/inkscape"
   width="175.7505mm"
   height="21.010391mm"
   viewBox="0 0 175.7505 21.010391"
   version="1.1"
   id="svg1029"
   inkscape:version="0.92.3 (2405546, 2018-03-11)"
   sodipodi:docname="cropfablogo0200215a.svg">
  <defs
     id="defs1023" />
  <sodipodi:namedview
     id="base"
     pagecolor="#ffffff"
     bordercolor="#666666"
     borderopacity="1.0"
     inkscape:pageopacity="0.0"
     inkscape:pageshadow="2"
     inkscape:zoom="1.4"
     inkscape:cx="382.62624"
     inkscape:cy="10.554361"
     inkscape:document-units="mm"
     inkscape:current-layer="layer1"
     showgrid="false"
     inkscape:window-width="1920"
     inkscape:window-height="1012"
     inkscape:window-x="0"
     inkscape:window-y="32"
     inkscape:window-maximized="1" />
  <metadata
     id="metadata1026">
    <rdf:RDF>
      <cc:Work
         rdf:about="">
        <dc:format>image/svg+xml</dc:format>
        <dc:type
           rdf:resource="http://purl.org/dc/dcmitype/StillImage" />
        <dc:title></dc:title>
      </cc:Work>
    </rdf:RDF>
  </metadata>
  <g
     inkscape:label="Layer 1"
     inkscape:groupmode="layer"
     id="layer1"
     transform="translate(-20.015161,-86.053552)">
    <rect
       style="opacity:1;fill:none;fill-opacity:0.86516849;stroke:#000000;stroke-width:2.78118706;stroke-linecap:round;stroke-linejoin:miter;stroke-miterlimit:4;stroke-dasharray:none;stroke-opacity:1"
       id="rect8970"
       width="172.96931"
       height="18.229204"
       x="21.405754"
       y="87.444145" />
    <g
       aria-label="IMAGE CROP FABRICATOR"
       style="font-style:normal;font-weight:normal;font-size:10.58333302px;line-height:1.25;font-family:sans-serif;letter-spacing:0px;word-spacing:0px;fill:#000000;fill-opacity:1;stroke:none;stroke-width:0.26458332"
       id="text8968-1">
      <path
         d="m 31.657863,92.936076 h 1.989543 v 7.715294 h -1.989543 z"
         style="font-weight:bold;fill:#c8ab37;stroke-width:0.26458332"
         id="path1651"
         inkscape:connector-curvature="0" />
      <path
         d="m 35.605942,92.936076 h 2.532145 l 1.756999,4.128947 1.767334,-4.128947 h 2.526977 v 7.715294 h -1.881022 v -5.643069 l -1.777669,4.159953 h -1.260905 l -1.777669,-4.159953 v 5.643069 h -1.88619 z"
         style="font-weight:bold;fill:#c8ab37;stroke-width:0.26458332"
         id="path1653"
         inkscape:connector-curvature="0" />
      <path
         d="m 50.829819,99.245768 h -3.110921 l -0.490926,1.405602 H 45.228094 L 48.0858,92.936076 h 2.371949 l 2.857706,7.715294 h -1.999878 z m -2.614828,-1.431437 h 2.113566 l -1.054199,-3.06958 z"
         style="font-weight:bold;fill:#c8ab37;stroke-width:0.26458332"
         id="path1655"
         inkscape:connector-curvature="0" />
      <path
         d="m 61.268459,100.07776 q -0.744141,0.36173 -1.545125,0.5426 -0.800985,0.18087 -1.653646,0.18087 -1.927531,0 -3.054077,-1.074871 -1.126546,-1.080037 -1.126546,-2.924886 0,-1.865519 1.147217,-2.935221 1.147216,-1.069702 3.141927,-1.069702 0.769978,0 1.472778,0.144694 0.707967,0.144694 1.333252,0.428914 v 1.596802 q -0.645956,-0.366903 -1.286743,-0.54777 -0.635621,-0.180868 -1.276408,-0.180868 -1.188558,0 -1.834514,0.666626 -0.640787,0.661458 -0.640787,1.896525 0,1.224732 0.620117,1.891357 0.620117,0.666626 1.762166,0.666626 0.310059,0 0.573609,-0.03617 0.268717,-0.04134 0.48059,-0.124024 v -1.498616 h -1.214396 v -1.333252 h 3.100586 z"
         style="font-weight:bold;fill:#c8ab37;stroke-width:0.26458332"
         id="path1657"
         inkscape:connector-curvature="0" />
      <path
         d="m 63.015123,92.936076 h 5.369181 v 1.503784 h -3.379639 v 1.436605 h 3.178101 v 1.503784 h -3.178101 v 1.767334 h 3.493327 v 1.503787 h -5.482869 z"
         style="font-weight:bold;fill:#c8ab37;stroke-width:0.26458332"
         id="path1659"
         inkscape:connector-curvature="0" />
      <path
         d="m 80.047673,100.22762 q -0.54777,0.28422 -1.142049,0.42891 -0.594279,0.1447 -1.240235,0.1447 -1.927531,0 -3.054077,-1.074871 -1.126546,-1.080037 -1.126546,-2.924886 0,-1.850016 1.126546,-2.924886 1.126546,-1.080037 3.054077,-1.080037 0.645956,0 1.240235,0.144694 0.594279,0.144694 1.142049,0.428914 v 1.596802 q -0.552938,-0.377238 -1.090373,-0.552938 -0.537435,-0.1757 -1.131714,-0.1757 -1.064534,0 -1.674316,0.682129 -0.609782,0.682129 -0.609782,1.881022 0,1.193726 0.609782,1.875855 0.609782,0.682128 1.674316,0.682128 0.594279,0 1.131714,-0.175699 0.537435,-0.1757 1.090373,-0.552938 z"
         style="font-weight:bold;fill:#c8ab37;stroke-width:0.26458332"
         id="path1661"
         inkscape:connector-curvature="0" />
      <path
         d="m 84.528021,96.357056 q 0.625285,0 0.894002,-0.232544 0.273885,-0.232544 0.273885,-0.764811 0,-0.5271 -0.273885,-0.754476 -0.268717,-0.227377 -0.894002,-0.227377 h -0.837158 v 1.979208 z m -0.837158,1.374593 v 2.919721 H 81.70132 v -7.715294 h 3.038574 q 1.524455,0 2.232422,0.511597 0.713135,0.511596 0.713135,1.617472 0,0.764811 -0.372071,1.255737 -0.366902,0.490926 -1.111043,0.72347 0.408244,0.09302 0.728638,0.423747 0.325561,0.325562 0.65629,0.992188 l 1.080038,2.191083 h -2.118734 l -0.940511,-1.917198 q -0.28422,-0.578776 -0.578776,-0.79065 -0.289388,-0.211873 -0.775146,-0.211873 z"
         style="font-weight:bold;fill:#c8ab37;stroke-width:0.26458332"
         id="path1663"
         inkscape:connector-curvature="0" />
      <path
         d="m 93.369856,94.238322 q -0.909505,0 -1.410767,0.671794 -0.501261,0.671793 -0.501261,1.891357 0,1.214396 0.501261,1.88619 0.501262,0.671793 1.410767,0.671793 0.914673,0 1.415934,-0.671793 0.501261,-0.671794 0.501261,-1.88619 0,-1.219564 -0.501261,-1.891357 -0.501261,-0.671794 -1.415934,-0.671794 z m 0,-1.441772 q 1.860351,0 2.91455,1.064534 1.0542,1.064535 1.0542,2.940389 0,1.870687 -1.0542,2.935221 -1.054199,1.064536 -2.91455,1.064536 -1.855184,0 -2.914551,-1.064536 -1.054199,-1.064534 -1.054199,-2.935221 0,-1.875854 1.054199,-2.940389 1.059367,-1.064534 2.914551,-1.064534 z"
         style="font-weight:bold;fill:#c8ab37;stroke-width:0.26458332"
         id="path1665"
         inkscape:connector-curvature="0" />
      <path
         d="m 98.837222,92.936076 h 3.302128 q 1.47277,0 2.25826,0.656291 0.79065,0.651123 0.79065,1.860351 0,1.214396 -0.79065,1.870687 -0.78549,0.651123 -2.25826,0.651123 h -1.31259 v 2.676842 h -1.989538 z m 1.989538,1.441772 v 2.154908 h 1.10071 q 0.57878,0 0.89401,-0.279053 0.31522,-0.28422 0.31522,-0.800985 0,-0.516764 -0.31522,-0.795817 -0.31523,-0.279053 -0.89401,-0.279053 z"
         style="font-weight:bold;fill:#c8ab37;stroke-width:0.26458332"
         id="path1667"
         inkscape:connector-curvature="0" />
      <path
         d="m 110.26805,92.936076 h 5.36918 v 1.503784 h -3.37964 v 1.436605 h 3.1781 v 1.503784 h -3.1781 v 3.271121 h -1.98954 z"
         style="font-weight:bold;fill:#c8ab37;stroke-width:0.26458332"
         id="path1669"
         inkscape:connector-curvature="0" />
      <path
         d="m 120.96507,99.245768 h -3.11092 l -0.49093,1.405602 h -1.99988 l 2.85771,-7.715294 h 2.37195 l 2.8577,7.715294 h -1.99987 z m -2.61483,-1.431437 h 2.11357 l -1.0542,-3.06958 z"
         style="font-weight:bold;fill:#c8ab37;stroke-width:0.26458332"
         id="path1671"
         inkscape:connector-curvature="0" />
      <path
         d="m 127.55898,95.922974 q 0.47026,0 0.71314,-0.206706 0.24287,-0.206706 0.24287,-0.609782 0,-0.397908 -0.24287,-0.604614 -0.24288,-0.211873 -0.71314,-0.211873 h -1.10071 v 1.632975 z m 0.0672,3.374471 q 0.59945,0 0.89917,-0.253215 0.30489,-0.253214 0.30489,-0.764811 0,-0.501261 -0.29972,-0.749308 -0.29973,-0.253215 -0.90434,-0.253215 h -1.16789 v 2.020549 z m 1.85002,-2.775025 q 0.64078,0.186036 0.99218,0.687297 0.3514,0.501261 0.3514,1.229899 0,1.116211 -0.75447,1.663984 -0.75448,0.54777 -2.29444,0.54777 h -3.30212 v -7.715294 h 2.9869 q 1.60713,0 2.32544,0.485759 0.72347,0.485758 0.72347,1.55546 0,0.563273 -0.26355,0.961182 -0.26355,0.392741 -0.76481,0.583943 z"
         style="font-weight:bold;fill:#c8ab37;stroke-width:0.26458332"
         id="path1673"
         inkscape:connector-curvature="0" />
      <path
         d="m 135.35695,96.357056 q 0.62529,0 0.89401,-0.232544 0.27388,-0.232544 0.27388,-0.764811 0,-0.5271 -0.27388,-0.754476 -0.26872,-0.227377 -0.89401,-0.227377 h -0.83715 v 1.979208 z m -0.83715,1.374593 v 2.919721 h -1.98955 v -7.715294 h 3.03858 q 1.52445,0 2.23242,0.511597 0.71313,0.511596 0.71313,1.617472 0,0.764811 -0.37207,1.255737 -0.3669,0.490926 -1.11104,0.72347 0.40824,0.09302 0.72864,0.423747 0.32556,0.325562 0.65629,0.992188 l 1.08004,2.191083 h -2.11874 l -0.94051,-1.917198 q -0.28422,-0.578776 -0.57877,-0.79065 -0.28939,-0.211873 -0.77515,-0.211873 z"
         style="font-weight:bold;fill:#c8ab37;stroke-width:0.26458332"
         id="path1675"
         inkscape:connector-curvature="0" />
      <path
         d="m 140.67446,92.936076 h 1.98955 v 7.715294 h -1.98955 z"
         style="font-weight:bold;fill:#c8ab37;stroke-width:0.26458332"
         id="path1677"
         inkscape:connector-curvature="0" />
      <path
         d="m 150.74103,100.22762 q -0.54777,0.28422 -1.14205,0.42891 -0.59428,0.1447 -1.24024,0.1447 -1.92753,0 -3.05407,-1.074871 -1.12655,-1.080037 -1.12655,-2.924886 0,-1.850016 1.12655,-2.924886 1.12654,-1.080037 3.05407,-1.080037 0.64596,0 1.24024,0.144694 0.59428,0.144694 1.14205,0.428914 v 1.596802 q -0.55294,-0.377238 -1.09037,-0.552938 -0.53744,-0.1757 -1.13172,-0.1757 -1.06453,0 -1.67431,0.682129 -0.60979,0.682129 -0.60979,1.881022 0,1.193726 0.60979,1.875855 0.60978,0.682128 1.67431,0.682128 0.59428,0 1.13172,-0.175699 0.53743,-0.1757 1.09037,-0.552938 z"
         style="font-weight:bold;fill:#c8ab37;stroke-width:0.26458332"
         id="path1679"
         inkscape:connector-curvature="0" />
      <path
         d="m 157.07656,99.245768 h -3.11092 l -0.49092,1.405602 h -1.99988 l 2.85771,-7.715294 h 2.37194 l 2.85771,7.715294 h -1.99988 z m -2.61482,-1.431437 h 2.11356 l -1.0542,-3.06958 z"
         style="font-weight:bold;fill:#c8ab37;stroke-width:0.26458332"
         id="path1681"
         inkscape:connector-curvature="0" />
      <path
         d="m 158.83356,92.936076 h 7.11067 v 1.503784 h -2.55798 v 6.21151 h -1.98954 v -6.21151 h -2.56315 z"
         style="font-weight:bold;fill:#c8ab37;stroke-width:0.26458332"
         id="path1683"
         inkscape:connector-curvature="0" />
      <path
         d="m 170.49177,94.238322 q -0.90951,0 -1.41077,0.671794 -0.50126,0.671793 -0.50126,1.891357 0,1.214396 0.50126,1.88619 0.50126,0.671793 1.41077,0.671793 0.91467,0 1.41593,-0.671793 0.50126,-0.671794 0.50126,-1.88619 0,-1.219564 -0.50126,-1.891357 -0.50126,-0.671794 -1.41593,-0.671794 z m 0,-1.441772 q 1.86035,0 2.91455,1.064534 1.0542,1.064535 1.0542,2.940389 0,1.870687 -1.0542,2.935221 -1.0542,1.064536 -2.91455,1.064536 -1.85519,0 -2.91455,-1.064536 -1.0542,-1.064534 -1.0542,-2.935221 0,-1.875854 1.0542,-2.940389 1.05936,-1.064534 2.91455,-1.064534 z"
         style="font-weight:bold;fill:#c8ab37;stroke-width:0.26458332"
         id="path1685"
         inkscape:connector-curvature="0" />
      <path
         d="m 178.78583,96.357056 q 0.62529,0 0.89401,-0.232544 0.27388,-0.232544 0.27388,-0.764811 0,-0.5271 -0.27388,-0.754476 -0.26872,-0.227377 -0.89401,-0.227377 h -0.83715 v 1.979208 z m -0.83715,1.374593 v 2.919721 h -1.98955 v -7.715294 h 3.03858 q 1.52445,0 2.23242,0.511597 0.71313,0.511596 0.71313,1.617472 0,0.764811 -0.37207,1.255737 -0.3669,0.490926 -1.11104,0.72347 0.40824,0.09302 0.72864,0.423747 0.32556,0.325562 0.65629,0.992188 l 1.08004,2.191083 h -2.11874 l -0.94051,-1.917198 q -0.28422,-0.578776 -0.57878,-0.79065 -0.28938,-0.211873 -0.77514,-0.211873 z"
         style="font-weight:bold;fill:#c8ab37;stroke-width:0.26458332"
         id="path1687"
         inkscape:connector-curvature="0" />
    </g>
    <path
       style="opacity:1;fill:#000000;fill-opacity:0.86516849;stroke:none;stroke-width:1.45051956;stroke-linecap:round;stroke-linejoin:miter;stroke-miterlimit:4;stroke-dasharray:none;stroke-opacity:1"
       d="M 71.433132,89.967177 V 95.2304 h 1.604041 v -3.704149 h 2.645835 v -1.559074 z"
       id="path9068"
       inkscape:connector-curvature="0" />
    <path
       style="opacity:0.7;fill:#000000;fill-opacity:0.86516849;stroke:none;stroke-width:2.75380325;stroke-linecap:round;stroke-linejoin:miter;stroke-miterlimit:4;stroke-dasharray:none;stroke-opacity:1"
       d="M 20.207908,87.924429 V 105.67335 H 194.37507 V 87.924429 Z m 52.119372,3.412136 h 59.26238 l 0.26878,10.705905 -59.35197,0.125 z"
       id="rect8970-7"
       inkscape:connector-curvature="0"
       sodipodi:nodetypes="cccccccccc" />
    <path
       style="opacity:1;fill:#000000;fill-opacity:0.86516849;stroke:none;stroke-width:1.45051956;stroke-linecap:round;stroke-linejoin:miter;stroke-miterlimit:4;stroke-dasharray:none;stroke-opacity:1"
       d="m 71.433132,103.13946 v -5.263225 h 1.604041 v 3.704145 h 2.645835 v 1.55908 z"
       id="path9068-0"
       inkscape:connector-curvature="0" />
    <path
       style="opacity:1;fill:#000000;fill-opacity:0.86516849;stroke:none;stroke-width:1.45051956;stroke-linecap:round;stroke-linejoin:miter;stroke-miterlimit:4;stroke-dasharray:none;stroke-opacity:1"
       d="M 132.84976,89.967187 V 95.2304 h -1.60403 v -3.704149 h -2.64584 v -1.559064 z"
       id="path9068-9"
       inkscape:connector-curvature="0" />
    <path
       style="opacity:1;fill:#000000;fill-opacity:0.86516849;stroke:none;stroke-width:1.45051956;stroke-linecap:round;stroke-linejoin:miter;stroke-miterlimit:4;stroke-dasharray:none;stroke-opacity:1"
       d="m 132.84976,103.13946 v -5.263215 h -1.60404 v 3.704135 h -2.64583 v 1.55908 z"
       id="path9068-0-5"
       inkscape:connector-curvature="0" />
  </g>
</svg>
