<?xml version="1.0" encoding="UTF-8" standalone="no"?>
<!-- Created with Inkscape (http://www.inkscape.org/) -->

<svg
   xmlns:dc="http://purl.org/dc/elements/1.1/"
   xmlns:cc="http://creativecommons.org/ns#"
   xmlns:rdf="http://www.w3.org/1999/02/22-rdf-syntax-ns#"
   xmlns:svg="http://www.w3.org/2000/svg"
   xmlns="http://www.w3.org/2000/svg"
   xmlns:sodipodi="http://sodipodi.sourceforge.net/DTD/sodipodi-0.dtd"
   xmlns:inkscape="http://www.inkscape.org/namespaces/inkscape"
   width="84.399101mm"
   height="29.970379mm"
   viewBox="0 0 84.399101 29.970379"
   version="1.1"
   id="svg8"
   inkscape:version="0.92.3 (2405546, 2018-03-11)"
   sodipodi:docname="cropfablogo0200213a.svg">
  <defs
     id="defs2" />
  <sodipodi:namedview
     id="base"
     pagecolor="#ffffff"
     bordercolor="#666666"
     borderopacity="1.0"
     inkscape:pageopacity="0.0"
     inkscape:pageshadow="2"
     inkscape:zoom="11.2"
     inkscape:cx="57.494108"
     inkscape:cy="36.646195"
     inkscape:document-units="mm"
     inkscape:current-layer="layer1"
     showgrid="false"
     inkscape:window-width="1920"
     inkscape:window-height="1012"
     inkscape:window-x="0"
     inkscape:window-y="32"
     inkscape:window-maximized="1" />
  <metadata
     id="metadata5">
    <rdf:RDF>
      <cc:Work
         rdf:about="">
        <dc:format>image/svg+xml</dc:format>
        <dc:type
           rdf:resource="http://purl.org/dc/dcmitype/StillImage" />
        <dc:title />
      </cc:Work>
    </rdf:RDF>
  </metadata>
  <g
     inkscape:label="Layer 1"
     inkscape:groupmode="layer"
     id="layer1"
     transform="translate(-74.217117,-84.635612)">
    <rect
       style="opacity:1;fill:none;fill-opacity:0.98876403;stroke:#ffcc00;stroke-width:2;stroke-miterlimit:4;stroke-dasharray:none;stroke-opacity:1"
       id="rect992"
       width="82.399101"
       height="27.970379"
       x="75.217117"
       y="85.635612" />
    <g
       aria-label="IMAGE"
       style="font-style:normal;font-weight:normal;font-size:10.58333302px;line-height:1.25;font-family:sans-serif;letter-spacing:0px;word-spacing:0px;fill:#000000;fill-opacity:1;stroke:none;stroke-width:0.26458332"
       id="text817">
      <path
         d="m 80.08814,90.305713 h 1.989542 v 7.715291 H 80.08814 Z"
         style="font-weight:bold;fill:#ffcc00;fill-opacity:1;stroke-width:0.26458332"
         id="path1053"
         inkscape:connector-curvature="0" />
      <path
         d="m 84.036219,90.305713 h 2.532145 l 1.756999,4.128946 1.767334,-4.128946 h 2.526977 v 7.715291 h -1.881022 v -5.643067 l -1.777669,4.159953 h -1.260905 l -1.777669,-4.159953 v 5.643067 h -1.88619 z"
         style="font-weight:bold;fill:#ffcc00;fill-opacity:1;stroke-width:0.26458332"
         id="path1055"
         inkscape:connector-curvature="0" />
      <path
         d="m 99.260096,96.615405 h -3.110921 l -0.490926,1.405599 h -1.999878 l 2.857706,-7.715291 h 2.371948 l 2.857705,7.715291 h -1.999876 z m -2.614828,-1.431437 h 2.113566 l -1.054199,-3.06958 z"
         style="font-weight:bold;fill:#ffcc00;fill-opacity:1;stroke-width:0.26458332"
         id="path1057"
         inkscape:connector-curvature="0" />
      <path
         d="m 109.69874,97.447395 q -0.74414,0.361735 -1.54513,0.542603 -0.80098,0.180867 -1.65365,0.180867 -1.92753,0 -3.05407,-1.074869 -1.12655,-1.080038 -1.12655,-2.924886 0,-1.86552 1.14722,-2.935222 1.14722,-1.069702 3.14193,-1.069702 0.76997,0 1.47277,0.144694 0.70797,0.144694 1.33326,0.428915 v 1.596801 q -0.64596,-0.366902 -1.28675,-0.54777 -0.63562,-0.180867 -1.27641,-0.180867 -1.18855,0 -1.83451,0.666626 -0.64079,0.661458 -0.64079,1.896525 0,1.224731 0.62012,1.891357 0.62012,0.666626 1.76217,0.666626 0.31006,0 0.57361,-0.03617 0.26871,-0.04134 0.48059,-0.124023 v -1.49862 h -1.2144 v -1.333252 h 3.10059 z"
         style="font-weight:bold;fill:#ffcc00;fill-opacity:1;stroke-width:0.26458332"
         id="path1059"
         inkscape:connector-curvature="0" />
      <path
         d="m 111.4454,90.305713 h 5.36918 v 1.503784 h -3.37964 v 1.436605 h 3.1781 v 1.503784 h -3.1781 v 1.767334 h 3.49333 v 1.503784 h -5.48287 z"
         style="font-weight:bold;fill:#ffcc00;fill-opacity:1;stroke-width:0.26458332"
         id="path1061"
         inkscape:connector-curvature="0" />
    </g>
    <g
       aria-label="CROP"
       style="font-style:normal;font-weight:normal;font-size:10.58333302px;line-height:1.25;font-family:sans-serif;letter-spacing:0px;word-spacing:0px;fill:#000000;fill-opacity:1;stroke:none;stroke-width:0.26458332"
       id="text821">
      <path
         d="m 127.60461,97.597257 q -0.54777,0.28422 -1.14205,0.428914 -0.59428,0.144694 -1.24023,0.144694 -1.92754,0 -3.05408,-1.074869 -1.12655,-1.080038 -1.12655,-2.924886 0,-1.850017 1.12655,-2.924886 1.12654,-1.080038 3.05408,-1.080038 0.64595,0 1.24023,0.144694 0.59428,0.144694 1.14205,0.428915 v 1.596801 q -0.55294,-0.377238 -1.09037,-0.552937 -0.53744,-0.1757 -1.13172,-0.1757 -1.06453,0 -1.67431,0.682129 -0.60979,0.682128 -0.60979,1.881022 0,1.193725 0.60979,1.875854 0.60978,0.682129 1.67431,0.682129 0.59428,0 1.13172,-0.1757 0.53743,-0.1757 1.09037,-0.552938 z"
         style="font-weight:bold;fill:#ffcc00;stroke-width:0.26458332"
         id="path1044"
         inkscape:connector-curvature="0" />
      <path
         d="m 132.08496,93.726692 q 0.62528,0 0.894,-0.232544 0.27388,-0.232544 0.27388,-0.764811 0,-0.527099 -0.27388,-0.754476 -0.26872,-0.227376 -0.894,-0.227376 h -0.83716 v 1.979207 z m -0.83716,1.374593 v 2.919719 h -1.98955 v -7.715291 h 3.03858 q 1.52445,0 2.23242,0.511596 0.71314,0.511597 0.71314,1.617473 0,0.764811 -0.37207,1.255737 -0.36691,0.490926 -1.11105,0.72347 0.40825,0.09302 0.72864,0.423747 0.32556,0.325561 0.65629,0.992187 l 1.08004,2.191081 h -2.11874 l -0.94051,-1.917196 q -0.28422,-0.578776 -0.57877,-0.790649 -0.28939,-0.211874 -0.77515,-0.211874 z"
         style="font-weight:bold;fill:#ffcc00;stroke-width:0.26458332"
         id="path1046"
         inkscape:connector-curvature="0" />
      <path
         d="m 140.92679,91.607959 q -0.9095,0 -1.41076,0.671793 -0.50127,0.671794 -0.50127,1.891358 0,1.214396 0.50127,1.886189 0.50126,0.671794 1.41076,0.671794 0.91467,0 1.41594,-0.671794 0.50126,-0.671793 0.50126,-1.886189 0,-1.219564 -0.50126,-1.891358 -0.50127,-0.671793 -1.41594,-0.671793 z m 0,-1.441773 q 1.86035,0 2.91455,1.064535 1.0542,1.064534 1.0542,2.940389 0,1.870686 -1.0542,2.935221 -1.0542,1.064534 -2.91455,1.064534 -1.85518,0 -2.91455,-1.064534 -1.0542,-1.064535 -1.0542,-2.935221 0,-1.875855 1.0542,-2.940389 1.05937,-1.064535 2.91455,-1.064535 z"
         style="font-weight:bold;fill:#ffcc00;stroke-width:0.26458332"
         id="path1048"
         inkscape:connector-curvature="0" />
      <path
         d="m 146.39416,90.305713 h 3.30212 q 1.47278,0 2.25826,0.65629 0.79065,0.651123 0.79065,1.860352 0,1.214396 -0.79065,1.870687 -0.78548,0.651123 -2.25826,0.651123 h -1.31258 v 2.676839 h -1.98954 z m 1.98954,1.441772 v 2.154907 h 1.10071 q 0.57878,0 0.894,-0.279053 0.31523,-0.28422 0.31523,-0.800984 0,-0.516765 -0.31523,-0.795817 -0.31522,-0.279053 -0.894,-0.279053 z"
         style="font-weight:bold;fill:#ffcc00;stroke-width:0.26458332"
         id="path1050"
         inkscape:connector-curvature="0" />
    </g>
    <g
       aria-label="FABRICATOR"
       style="font-style:normal;font-weight:normal;font-size:10.58333302px;line-height:1.25;font-family:sans-serif;letter-spacing:0px;word-spacing:0px;fill:#000000;fill-opacity:1;stroke:none;stroke-width:0.26458332"
       id="text825">
      <path
         d="m 80.08814,101.36152 h 5.369181 v 1.50379 h -3.379639 v 1.4366 h 3.178101 v 1.50378 h -3.178101 v 3.27112 H 80.08814 Z"
         style="font-weight:bold;fill:#ffcc00;fill-opacity:1;stroke-width:0.26458332"
         id="path1023"
         inkscape:connector-curvature="0" />
      <path
         d="M 90.785161,107.67121 H 87.67424 l -0.490926,1.4056 h -1.999878 l 2.857707,-7.71529 h 2.371948 l 2.857706,7.71529 H 91.27092 Z m -2.614827,-1.43143 H 90.2839 l -1.054199,-3.06958 z"
         style="font-weight:bold;fill:#ffcc00;fill-opacity:1;stroke-width:0.26458332"
         id="path1025"
         inkscape:connector-curvature="0" />
      <path
         d="m 97.379074,104.34842 q 0.470255,0 0.713135,-0.20671 0.242879,-0.2067 0.242879,-0.60978 0,-0.39791 -0.242879,-0.60461 -0.24288,-0.21188 -0.713135,-0.21188 h -1.100708 v 1.63298 z m 0.06718,3.37447 q 0.599447,0 0.89917,-0.25321 0.304891,-0.25322 0.304891,-0.76482 0,-0.50126 -0.299723,-0.7493 -0.299723,-0.25322 -0.904338,-0.25322 h -1.167887 v 2.02055 z m 1.850017,-2.77502 q 0.640787,0.18603 0.992189,0.68729 0.3514,0.50126 0.3514,1.2299 0,1.11621 -0.754478,1.66398 -0.754476,0.54777 -2.294434,0.54777 h -3.302124 v -7.71529 h 2.986898 q 1.607137,0 2.325439,0.48576 0.723469,0.48576 0.723469,1.55546 0,0.56327 -0.26355,0.96118 -0.263548,0.39274 -0.764809,0.58395 z"
         style="font-weight:bold;fill:#ffcc00;fill-opacity:1;stroke-width:0.26458332"
         id="path1027"
         inkscape:connector-curvature="0" />
      <path
         d="m 105.17705,104.7825 q 0.62528,0 0.894,-0.23254 0.27388,-0.23255 0.27388,-0.76481 0,-0.5271 -0.27388,-0.75448 -0.26872,-0.22738 -0.894,-0.22738 h -0.83716 v 1.97921 z m -0.83716,1.37459 v 2.91972 h -1.98954 v -7.71529 h 3.03857 q 1.52446,0 2.23242,0.5116 0.71314,0.51159 0.71314,1.61747 0,0.76481 -0.37207,1.25574 -0.36691,0.49092 -1.11105,0.72347 0.40825,0.093 0.72864,0.42374 0.32556,0.32557 0.65629,0.99219 l 1.08004,2.19108 h -2.11873 l -0.94051,-1.91719 q -0.28423,-0.57878 -0.57878,-0.79065 -0.28939,-0.21188 -0.77515,-0.21188 z"
         style="font-weight:bold;fill:#ffcc00;fill-opacity:1;stroke-width:0.26458332"
         id="path1029"
         inkscape:connector-curvature="0" />
      <path
         d="m 110.49455,101.36152 h 1.98954 v 7.71529 h -1.98954 z"
         style="font-weight:bold;fill:#ffcc00;fill-opacity:1;stroke-width:0.26458332"
         id="path1031"
         inkscape:connector-curvature="0" />
      <path
         d="m 120.56112,108.65307 q -0.54777,0.28422 -1.14205,0.42891 -0.59428,0.14469 -1.24023,0.14469 -1.92753,0 -3.05408,-1.07487 -1.12655,-1.08003 -1.12655,-2.92488 0,-1.85002 1.12655,-2.92489 1.12655,-1.08003 3.05408,-1.08003 0.64595,0 1.24023,0.14469 0.59428,0.14469 1.14205,0.42891 v 1.59681 q -0.55294,-0.37724 -1.09037,-0.55294 -0.53744,-0.1757 -1.13172,-0.1757 -1.06453,0 -1.67431,0.68213 -0.60978,0.68213 -0.60978,1.88102 0,1.19372 0.60978,1.87585 0.60978,0.68213 1.67431,0.68213 0.59428,0 1.13172,-0.1757 0.53743,-0.1757 1.09037,-0.55294 z"
         style="font-weight:bold;fill:#ffcc00;fill-opacity:1;stroke-width:0.26458332"
         id="path1033"
         inkscape:connector-curvature="0" />
      <path
         d="m 126.89665,107.67121 h -3.11092 l -0.49093,1.4056 h -1.99988 l 2.85771,-7.71529 h 2.37195 l 2.85771,7.71529 h -1.99988 z m -2.61483,-1.43143 h 2.11357 l -1.0542,-3.06958 z"
         style="font-weight:bold;fill:#ffcc00;fill-opacity:1;stroke-width:0.26458332"
         id="path1035"
         inkscape:connector-curvature="0" />
      <path
         d="m 128.65365,101.36152 h 7.11068 v 1.50379 h -2.55799 v 6.2115 h -1.98954 v -6.2115 h -2.56315 z"
         style="font-weight:bold;fill:#ffcc00;fill-opacity:1;stroke-width:0.26458332"
         id="path1037"
         inkscape:connector-curvature="0" />
      <path
         d="m 140.31185,102.66377 q -0.9095,0 -1.41077,0.67179 -0.50126,0.67179 -0.50126,1.89136 0,1.21439 0.50126,1.88619 0.50127,0.67179 1.41077,0.67179 0.91467,0 1.41594,-0.67179 0.50126,-0.6718 0.50126,-1.88619 0,-1.21957 -0.50126,-1.89136 -0.50127,-0.67179 -1.41594,-0.67179 z m 0,-1.44177 q 1.86035,0 2.91455,1.06453 1.0542,1.06453 1.0542,2.94039 0,1.87069 -1.0542,2.93522 -1.0542,1.06453 -2.91455,1.06453 -1.85518,0 -2.91455,-1.06453 -1.0542,-1.06453 -1.0542,-2.93522 0,-1.87586 1.0542,-2.94039 1.05937,-1.06453 2.91455,-1.06453 z"
         style="font-weight:bold;fill:#ffcc00;fill-opacity:1;stroke-width:0.26458332"
         id="path1039"
         inkscape:connector-curvature="0" />
      <path
         d="m 148.60592,104.7825 q 0.62528,0 0.894,-0.23254 0.27389,-0.23255 0.27389,-0.76481 0,-0.5271 -0.27389,-0.75448 -0.26872,-0.22738 -0.894,-0.22738 h -0.83716 v 1.97921 z m -0.83716,1.37459 v 2.91972 h -1.98954 v -7.71529 h 3.03857 q 1.52446,0 2.23242,0.5116 0.71314,0.51159 0.71314,1.61747 0,0.76481 -0.37207,1.25574 -0.3669,0.49092 -1.11104,0.72347 0.40824,0.093 0.72863,0.42374 0.32556,0.32557 0.65629,0.99219 l 1.08004,2.19108 h -2.11873 l -0.94051,-1.91719 q -0.28422,-0.57878 -0.57878,-0.79065 -0.28939,-0.21188 -0.77515,-0.21188 z"
         style="font-weight:bold;fill:#ffcc00;fill-opacity:1;stroke-width:0.26458332"
         id="path1041"
         inkscape:connector-curvature="0" />
    </g>
    <path
       style="opacity:1;fill:#000000;fill-opacity:0.66666667;stroke:none;stroke-width:7.2712431;stroke-miterlimit:4;stroke-dasharray:none;stroke-opacity:1"
       d="M 284.28516,323.94727 V 429.66211 H 595.71484 V 323.94727 Z m 167.53711,10.65429 h 132.26757 v 43.4336 H 451.82227 Z m -153.85743,42.57227 h 87.31641 v 41.43359 h -87.31641 z"
       id="rect831"
       inkscape:connector-curvature="0"
       transform="scale(0.26458333)"
       sodipodi:nodetypes="ccccccccccccccc" />
    <path
       style="opacity:1;fill:#000000;fill-opacity:0.98876403;stroke:none;stroke-width:2.45900011;stroke-miterlimit:4;stroke-dasharray:none;stroke-opacity:1"
       d="m 78.83653,99.793908 v 3.212712 h 0.548288 v -2.66444 h 2.664955 v -0.548272 z"
       id="rect912"
       inkscape:connector-curvature="0" />
    <path
       style="opacity:1;fill:#000000;fill-opacity:0.98876403;stroke:none;stroke-width:2.45900011;stroke-miterlimit:4;stroke-dasharray:none;stroke-opacity:1"
       d="m 101.939,99.793908 v 3.212712 h -0.54829 v -2.66444 h -2.664963 v -0.548272 z"
       id="rect912-9"
       inkscape:connector-curvature="0" />
    <path
       style="opacity:1;fill:#000000;fill-opacity:0.98876403;stroke:none;stroke-width:2.45900011;stroke-miterlimit:4;stroke-dasharray:none;stroke-opacity:1"
       d="m 101.939,110.75654 v -3.21272 h -0.54829 v 2.66444 h -2.664954 v 0.54828 z"
       id="rect912-9-0"
       inkscape:connector-curvature="0" />
    <path
       style="opacity:1;fill:#000000;fill-opacity:0.98876403;stroke:none;stroke-width:2.45900011;stroke-miterlimit:4;stroke-dasharray:none;stroke-opacity:1"
       d="m 78.83653,110.75654 v -3.21272 h 0.54829 v 2.66444 h 2.66495 v 0.54828 z"
       id="rect912-9-9"
       inkscape:connector-curvature="0" />
    <path
       style="opacity:1;fill:#000000;fill-opacity:0.98876403;stroke:none;stroke-width:2.45900011;stroke-miterlimit:4;stroke-dasharray:none;stroke-opacity:1"
       d="m 119.54464,88.530001 v 3.21271 h 0.54829 v -2.66444 h 2.66495 v -0.54827 z"
       id="rect912-94"
       inkscape:connector-curvature="0" />
    <path
       style="opacity:1;fill:#000000;fill-opacity:0.98876403;stroke:none;stroke-width:2.45900011;stroke-miterlimit:4;stroke-dasharray:none;stroke-opacity:1"
       d="m 154.54043,88.529995 v 3.21271 h -0.54829 v -2.66444 h -2.66497 v -0.54827 z"
       id="rect912-9-5"
       inkscape:connector-curvature="0" />
    <path
       style="opacity:1;fill:#000000;fill-opacity:0.98876403;stroke:none;stroke-width:2.45900011;stroke-miterlimit:4;stroke-dasharray:none;stroke-opacity:1"
       d="m 154.54043,100.0218 v -3.212718 h -0.54829 v 2.66444 h -2.66496 v 0.548278 z"
       id="rect912-9-0-1"
       inkscape:connector-curvature="0" />
    <path
       style="opacity:1;fill:#000000;fill-opacity:0.98876403;stroke:none;stroke-width:2.45900011;stroke-miterlimit:4;stroke-dasharray:none;stroke-opacity:1"
       d="m 119.54464,100.0218 v -3.212719 h 0.54829 v 2.66444 h 2.66495 v 0.548279 z"
       id="rect912-9-9-0"
       inkscape:connector-curvature="0" />
  </g>
</svg>
