<?xml version="1.0" encoding="UTF-8" standalone="no"?>
<!-- Created with Inkscape (http://www.inkscape.org/) -->

<svg
   xmlns:dc="http://purl.org/dc/elements/1.1/"
   xmlns:cc="http://creativecommons.org/ns#"
   xmlns:rdf="http://www.w3.org/1999/02/22-rdf-syntax-ns#"
   xmlns:svg="http://www.w3.org/2000/svg"
   xmlns="http://www.w3.org/2000/svg"
   xmlns:sodipodi="http://sodipodi.sourceforge.net/DTD/sodipodi-0.dtd"
   xmlns:inkscape="http://www.inkscape.org/namespaces/inkscape"
   width="210mm"
   height="297mm"
   viewBox="0 0 210 297"
   version="1.1"
   id="svg8"
   inkscape:version="0.92.3 (2405546, 2018-03-11)"
   sodipodi:docname="redflower0200212.svg">
  <defs
     id="defs2" />
  <sodipodi:namedview
     id="base"
     pagecolor="#ffffff"
     bordercolor="#666666"
     borderopacity="1.0"
     inkscape:pageopacity="0.0"
     inkscape:pageshadow="2"
     inkscape:zoom="0.7"
     inkscape:cx="111.7282"
     inkscape:cy="485.06411"
     inkscape:document-units="mm"
     inkscape:current-layer="layer1"
     showgrid="false"
     inkscape:window-width="1920"
     inkscape:window-height="1012"
     inkscape:window-x="0"
     inkscape:window-y="32"
     inkscape:window-maximized="1" />
  <metadata
     id="metadata5">
    <rdf:RDF>
      <cc:Work
         rdf:about="">
        <dc:format>image/svg+xml</dc:format>
        <dc:type
           rdf:resource="http://purl.org/dc/dcmitype/StillImage" />
        <dc:title></dc:title>
      </cc:Work>
    </rdf:RDF>
  </metadata>
  <g
     inkscape:label="Layer 1"
     inkscape:groupmode="layer"
     id="layer1">
    <ellipse
       style="fill:#aa4400;fill-opacity:1;stroke:none;stroke-width:4.50899982;stroke-miterlimit:4;stroke-dasharray:none;stroke-opacity:1"
       id="path4580"
       cx="104.51041"
       cy="186.63094"
       rx="68.602676"
       ry="33.639881" />
    <path
       sodipodi:type="spiral"
       style="fill:none;fill-rule:evenodd;stroke:#00f400;stroke-width:1.07623458;stroke-linecap:round;stroke-linejoin:miter;stroke-miterlimit:4;stroke-dasharray:none;stroke-opacity:1"
       id="path67"
       sodipodi:cx="109.23042"
       sodipodi:cy="211.1212"
       sodipodi:expansion="1"
       sodipodi:revolution="0.62399346"
       sodipodi:radius="22.52096"
       sodipodi:argument="-17.801481"
       sodipodi:t0="0"
       d="m 109.23042,211.1212 c 2.71025,4.7038 -5.00349,5.97404 -7.81802,4.5046 -7.627221,-3.98209 -6.137485,-14.72252 -1.19118,-20.14065 3.72954,-4.08531 9.23801,-6.18523 14.71947,-6.14895"
       transform="matrix(-2.5266065,2.8477719,-2.9981726,-3.567906,987.39143,534.38649)" />
    <path
       style="fill:#ff2a2a;stroke-width:0.26458332"
       d="M 104.32142,51.315476 A 29.860117,14.741072 0 0 1 74.461305,66.056546 29.860117,14.741072 0 0 1 44.601188,51.315476 29.860117,14.741072 0 0 1 74.461305,36.574404 29.860117,14.741072 0 0 1 104.32142,51.315476 Z"
       id="path10"
       inkscape:connector-curvature="0" />
    <path
       inkscape:connector-curvature="0"
       style="fill:#ff2a2a;stroke-width:0.26458332"
       d="M 104.32142,51.315476 A 29.860118,14.741072 41.714505 0 1 72.222748,42.449736 29.860118,14.741072 41.714505 0 1 59.742068,11.576474 29.860118,14.741072 41.714505 0 1 91.840742,20.44221 29.860118,14.741072 41.714505 0 1 104.32142,51.315476 Z"
       id="path10-3" />
    <path
       inkscape:connector-curvature="0"
       style="fill:#ff2a2a;stroke-width:0.26458332"
       d="M 97.513159,58.796806 A 14.741072,29.860118 27.937727 0 1 98.479865,25.510305 14.741072,29.860118 27.937727 0 1 125.49278,6.0365212 14.741072,29.860118 27.937727 0 1 124.52608,39.323026 14.741072,29.860118 27.937727 0 1 97.513159,58.796806 Z"
       id="path10-3-6" />
    <path
       inkscape:connector-curvature="0"
       style="fill:#ff2a2a;stroke-width:0.26458332"
       d="M 100.74226,103.53439 A 29.860118,14.741072 81.607218 0 1 81.800721,76.145616 29.860118,14.741072 81.607218 0 1 92.025588,44.453696 29.860118,14.741072 81.607218 0 1 110.96714,71.842456 29.860118,14.741072 81.607218 0 1 100.74226,103.53439 Z"
       id="path10-3-7" />
    <path
       inkscape:connector-curvature="0"
       style="fill:#ff2a2a;stroke-width:0.26458332"
       d="m 131.19443,92.851606 a 29.860118,14.741072 51.575577 0 1 -30.1061,-14.23196 29.860118,14.741072 51.575577 0 1 -7.008941,-32.55459 29.860118,14.741072 51.575577 0 1 30.106101,14.23197 29.860118,14.741072 51.575577 0 1 7.00894,32.55458 z"
       id="path10-3-5" />
    <path
       inkscape:connector-curvature="0"
       style="fill:#ff2a2a;stroke-width:0.26458332"
       d="m 97.513159,58.796806 a 14.741072,29.860118 46.830262 0 1 -11.692605,31.18027 14.741072,29.860118 46.830262 0 1 -31.863166,9.67805 14.741072,29.860118 46.830262 0 1 11.692606,-31.18027 14.741072,29.860118 46.830262 0 1 31.863165,-9.67805 z"
       id="path10-3-3" />
    <ellipse
       style="fill:#f9f9f9;stroke-width:0.26458332"
       id="path63"
       cx="94.116066"
       cy="58.119049"
       rx="11.339286"
       ry="13.985119" />
  </g>
</svg>
